<svg width="39" height="47" viewBox="0 0 39 47" fill="none" xmlns="http://www.w3.org/2000/svg">
<path d="M0 46.068C0.373215 41.5514 2.53737 37.327 6.06945 34.2207C9.60153 31.1143 14.2476 29.3493 19.0996 29.2705C23.9515 29.1917 28.6606 30.8049 32.3062 33.7947C35.9519 36.7845 38.2721 40.936 38.8133 45.4378L36.4849 45.6818C36.0087 41.721 33.9673 38.0684 30.7598 35.4379C27.5523 32.8074 23.4092 31.3881 19.1403 31.4574C14.8715 31.5267 10.7837 33.0797 7.67614 35.8127C4.56854 38.5457 2.66447 42.2624 2.3361 46.2362L0 46.068Z" fill="#D9D9D9"/>
<path d="M33.9349 13.8666C33.9349 21.3408 27.4443 27.3999 19.4376 27.3999C11.431 27.3999 4.94035 21.3408 4.94035 13.8666C4.94035 6.39233 11.431 0.333252 19.4376 0.333252C27.4443 0.333252 33.9349 6.39233 33.9349 13.8666ZM7.6876 13.8666C7.6876 19.9245 12.9483 24.8353 19.4376 24.8353C25.927 24.8353 31.1877 19.9245 31.1877 13.8666C31.1877 7.80871 25.927 2.89783 19.4376 2.89783C12.9483 2.89783 7.6876 7.80871 7.6876 13.8666Z" fill="#D9D9D9"/>
</svg>
