<svg width="25" height="25" viewBox="0 0 25 25" fill="none" xmlns="http://www.w3.org/2000/svg">
<path d="M25 12.5C25 19.4036 19.4036 25 12.5 25C5.59644 25 0 19.4036 0 12.5C0 5.59644 5.59644 0 12.5 0C19.4036 0 25 5.59644 25 12.5Z" fill="#F01313"/>
<path d="M18.5168 10.3707V6.6293H14.9907L12.485 4L10.0168 6.6293H6.48323V10.3707L4 12.9841L6.48323 15.6372V19.3707H10.0168L12.485 22L14.9907 19.3707H18.5168V15.6372L21 12.9841L18.5168 10.3707ZM10.1068 9.05207C10.842 9.05207 11.4347 9.67961 11.4347 10.466C11.4347 10.8389 11.2948 11.1965 11.0458 11.4602C10.7967 11.7239 10.459 11.872 10.1068 11.872C9.36408 11.872 8.7714 11.2445 8.7714 10.466C8.7714 9.67961 9.36408 9.05207 10.1068 9.05207ZM14.9007 16.9559C14.1655 16.9559 13.5728 16.3204 13.5728 15.5419C13.5728 15.169 13.7127 14.8114 13.9617 14.5477C14.2108 14.2841 14.5485 14.1359 14.9007 14.1359C15.6359 14.1359 16.2361 14.7635 16.2361 15.5419C16.2361 15.9169 16.0954 16.2766 15.845 16.5417C15.5945 16.8069 15.2549 16.9559 14.9007 16.9559ZM9.85922 16.9797L8.73389 15.7882L15.1333 9.01236L16.2586 10.2039L9.85922 16.9797Z" fill="#DDDDDD"/>
</svg>
