<svg width="81" height="150" viewBox="0 0 81 150" fill="none" xmlns="http://www.w3.org/2000/svg">
<path d="M13.6105 149.94H67.0906C74.2798 149.94 80.1301 144.091 80.1301 136.9V13.8233C80.1301 6.63189 74.2809 0.783691 67.0916 0.783691H13.6089C6.41967 0.783691 0.569336 6.63189 0.569336 13.8233V136.9C0.570377 144.089 6.41967 149.938 13.6089 149.938L13.6105 149.94ZM5.32658 13.8252C5.32658 9.25782 9.04187 5.5412 13.6105 5.5412H26.6096C26.6856 6.78555 27.7166 7.77082 28.9797 7.77082H51.7245C52.9876 7.77082 54.0186 6.78451 54.0946 5.5412H67.0937C71.661 5.5412 75.3777 9.25649 75.3777 13.8252V136.902C75.3777 141.469 71.6624 145.186 67.0937 145.186H13.611C9.04368 145.186 5.32706 141.471 5.32706 136.902L5.32658 13.8252ZM26.6022 132.512C26.6022 131.199 27.6676 130.135 28.9796 130.135H51.7244C53.0374 130.135 54.1017 131.201 54.1017 132.512C54.1017 133.825 53.0363 134.89 51.7244 134.89L28.9796 134.891C27.6655 134.889 26.6022 133.825 26.6022 132.512Z" fill="white"/>
</svg>
