<svg width="27" height="27" viewBox="0 0 27 27" fill="none" xmlns="http://www.w3.org/2000/svg">
<path d="M18.4652 9.18497C18.4652 14.2577 14.3537 18.3699 9.28189 18.3699C4.21012 18.3699 0.0986328 14.2577 0.0986328 9.18497C0.0986328 4.11225 4.21012 0 9.28189 0C14.3537 0 18.4652 4.11225 18.4652 9.18497ZM2.14919 9.18497C2.14919 13.125 5.34261 16.319 9.28189 16.319C13.2212 16.319 16.4146 13.125 16.4146 9.18497C16.4146 5.24495 13.2212 2.05093 9.28189 2.05093C5.34261 2.05093 2.14919 5.24495 2.14919 9.18497Z" fill="white"/>
<rect width="2.50476" height="14.1936" rx="1.25238" transform="matrix(0.707041 -0.707173 0.707041 0.707173 14.4878 16.9626)" fill="white"/>
</svg>
