<svg width="598" height="548" viewBox="0 0 598 548" fill="none" xmlns="http://www.w3.org/2000/svg">
<path d="M553.727 6.09137L23.2469 226.878C23.2469 226.878 -1.83179 235.993 0.106874 252.81C2.10167 269.654 22.5655 277.362 22.5655 277.362L156.046 325.013C156.046 325.013 196.338 465.173 204.264 491.839C212.191 518.433 218.556 519.063 218.556 519.063C225.942 522.47 232.655 517.048 232.655 517.048L318.895 433.652L453.308 542.974C489.663 559.797 502.896 524.75 502.896 524.75L597.339 19.4171C597.339 -14.2389 553.735 6.07843 553.735 6.07843L553.727 6.09137ZM459.81 484.118L316.023 367.186L271.403 410.322L281.215 318.551L472.882 136.898L211.615 292.005L95.7247 250.641L537.871 66.6007L459.81 484.118Z" fill="black"/>
</svg>
